<mxfile host="app.diagrams.net" modified="2023-08-20T16:29:45.703Z" agent="Mozilla/5.0 (Windows NT 10.0; Win64; x64) AppleWebKit/537.36 (KHTML, like Gecko) Chrome/115.0.0.0 Safari/537.36 Edg/115.0.1901.203" etag="J4i6axO9KJpUqR6cm6a9" version="21.6.8" type="device" pages="2">
  <diagram id="uH54kyftliJ96vURA3TG" name="UML">
    <mxGraphModel dx="1120" dy="452" grid="1" gridSize="10" guides="1" tooltips="1" connect="1" arrows="1" fold="1" page="1" pageScale="1" pageWidth="1169" pageHeight="827" background="none" math="0" shadow="0">
      <root>
        <mxCell id="0" />
        <mxCell id="1" parent="0" />
        <mxCell id="1DaD0b_Yj19bJ4eFErKd-13" value="ReliabilityLayer" style="swimlane;fontStyle=1;align=center;verticalAlign=top;childLayout=stackLayout;horizontal=1;startSize=26;horizontalStack=0;resizeParent=1;resizeParentMax=0;resizeLast=0;collapsible=1;marginBottom=0;" parent="1" vertex="1">
          <mxGeometry x="370" y="280" width="276" height="180" as="geometry" />
        </mxCell>
        <mxCell id="1DaD0b_Yj19bJ4eFErKd-14" value="- handler: CommunicationLayer&#xa;- upBuffer: List Message&#xa;- downBuffer: List Message&#xa;- ackMap: Map&lt;Message, Bitvector&gt;&#xa;- faultRecv: FaultRecovery" style="text;strokeColor=none;fillColor=none;align=left;verticalAlign=top;spacingLeft=4;spacingRight=4;overflow=hidden;rotatable=0;points=[[0,0.5],[1,0.5]];portConstraint=eastwest;" parent="1DaD0b_Yj19bJ4eFErKd-13" vertex="1">
          <mxGeometry y="26" width="276" height="84" as="geometry" />
        </mxCell>
        <mxCell id="1DaD0b_Yj19bJ4eFErKd-15" value="" style="line;strokeWidth=1;fillColor=none;align=left;verticalAlign=middle;spacingTop=-1;spacingLeft=3;spacingRight=3;rotatable=0;labelPosition=right;points=[];portConstraint=eastwest;strokeColor=inherit;" parent="1DaD0b_Yj19bJ4eFErKd-13" vertex="1">
          <mxGeometry y="110" width="276" height="8" as="geometry" />
        </mxCell>
        <mxCell id="1DaD0b_Yj19bJ4eFErKd-16" value="+ addListener()&#xa;+ sendMessage()&#xa;+ getMessage()&#xa;- checkDelivery(message)&#xa;" style="text;strokeColor=none;fillColor=none;align=left;verticalAlign=top;spacingLeft=4;spacingRight=4;overflow=hidden;rotatable=0;points=[[0,0.5],[1,0.5]];portConstraint=eastwest;" parent="1DaD0b_Yj19bJ4eFErKd-13" vertex="1">
          <mxGeometry y="118" width="276" height="62" as="geometry" />
        </mxCell>
        <mxCell id="1DaD0b_Yj19bJ4eFErKd-17" value="ReliabilityMessage" style="swimlane;fontStyle=1;align=center;verticalAlign=top;childLayout=stackLayout;horizontal=1;startSize=26;horizontalStack=0;resizeParent=1;resizeParentMax=0;resizeLast=0;collapsible=1;marginBottom=0;" parent="1" vertex="1">
          <mxGeometry x="75" y="300" width="148" height="88" as="geometry" />
        </mxCell>
        <mxCell id="1DaD0b_Yj19bJ4eFErKd-18" value="- payload: VSMessage&#xa;- messageUID: UUID&#xa;- type: DATA | ACK" style="text;strokeColor=none;fillColor=none;align=left;verticalAlign=top;spacingLeft=4;spacingRight=4;overflow=hidden;rotatable=0;points=[[0,0.5],[1,0.5]];portConstraint=eastwest;" parent="1DaD0b_Yj19bJ4eFErKd-17" vertex="1">
          <mxGeometry y="26" width="148" height="54" as="geometry" />
        </mxCell>
        <mxCell id="1DaD0b_Yj19bJ4eFErKd-19" value="" style="line;strokeWidth=1;fillColor=none;align=left;verticalAlign=middle;spacingTop=-1;spacingLeft=3;spacingRight=3;rotatable=0;labelPosition=right;points=[];portConstraint=eastwest;strokeColor=inherit;" parent="1DaD0b_Yj19bJ4eFErKd-17" vertex="1">
          <mxGeometry y="80" width="148" height="8" as="geometry" />
        </mxCell>
        <mxCell id="1DaD0b_Yj19bJ4eFErKd-21" value="VSyncLayer" style="swimlane;fontStyle=1;align=center;verticalAlign=top;childLayout=stackLayout;horizontal=1;startSize=26;horizontalStack=0;resizeParent=1;resizeParentMax=0;resizeLast=0;collapsible=1;marginBottom=0;" parent="1" vertex="1">
          <mxGeometry x="380" y="70" width="276" height="180" as="geometry" />
        </mxCell>
        <mxCell id="1DaD0b_Yj19bJ4eFErKd-22" value="- handler: Reliability&#xa;- upBuffer: List Message&#xa;- downBuffer: List Message&#xa;- ackMap: Map&lt;Message, Bitvector&gt;&#xa;- faultRecv: FaultRecovery" style="text;strokeColor=none;fillColor=none;align=left;verticalAlign=top;spacingLeft=4;spacingRight=4;overflow=hidden;rotatable=0;points=[[0,0.5],[1,0.5]];portConstraint=eastwest;" parent="1DaD0b_Yj19bJ4eFErKd-21" vertex="1">
          <mxGeometry y="26" width="276" height="84" as="geometry" />
        </mxCell>
        <mxCell id="1DaD0b_Yj19bJ4eFErKd-23" value="" style="line;strokeWidth=1;fillColor=none;align=left;verticalAlign=middle;spacingTop=-1;spacingLeft=3;spacingRight=3;rotatable=0;labelPosition=right;points=[];portConstraint=eastwest;strokeColor=inherit;" parent="1DaD0b_Yj19bJ4eFErKd-21" vertex="1">
          <mxGeometry y="110" width="276" height="8" as="geometry" />
        </mxCell>
        <mxCell id="1DaD0b_Yj19bJ4eFErKd-24" value="+ addListener()&#xa;+ sendMessage()&#xa;+ getMessage()&#xa;+ getViewManager()" style="text;strokeColor=none;fillColor=none;align=left;verticalAlign=top;spacingLeft=4;spacingRight=4;overflow=hidden;rotatable=0;points=[[0,0.5],[1,0.5]];portConstraint=eastwest;" parent="1DaD0b_Yj19bJ4eFErKd-21" vertex="1">
          <mxGeometry y="118" width="276" height="62" as="geometry" />
        </mxCell>
        <mxCell id="ZzXIpPAD5MCdEfTn8lEt-22" value="" style="group" parent="1" vertex="1" connectable="0">
          <mxGeometry x="20" y="20" width="173.48" height="173.48" as="geometry" />
        </mxCell>
        <mxCell id="ZzXIpPAD5MCdEfTn8lEt-9" value="" style="whiteSpace=wrap;html=1;aspect=fixed;movable=0;resizable=0;rotatable=0;deletable=0;editable=0;locked=1;connectable=0;" parent="ZzXIpPAD5MCdEfTn8lEt-22" vertex="1">
          <mxGeometry width="173.47826086956525" height="173.47826086956525" as="geometry" />
        </mxCell>
        <mxCell id="ZzXIpPAD5MCdEfTn8lEt-13" value="" style="whiteSpace=wrap;html=1;aspect=fixed;movable=1;resizable=1;rotatable=1;deletable=1;editable=1;locked=0;connectable=1;" parent="ZzXIpPAD5MCdEfTn8lEt-22" vertex="1">
          <mxGeometry x="30" y="31.96" width="134.35" height="134.35" as="geometry" />
        </mxCell>
        <mxCell id="ZzXIpPAD5MCdEfTn8lEt-16" value="" style="whiteSpace=wrap;html=1;aspect=fixed;movable=1;resizable=1;rotatable=1;deletable=1;editable=1;locked=0;connectable=1;" parent="ZzXIpPAD5MCdEfTn8lEt-22" vertex="1">
          <mxGeometry x="63.9130434782609" y="68.47826086956522" width="91.30434782608695" height="91.30434782608695" as="geometry" />
        </mxCell>
        <mxCell id="ZzXIpPAD5MCdEfTn8lEt-18" value="DATA" style="text;html=1;strokeColor=none;fillColor=none;align=center;verticalAlign=middle;whiteSpace=wrap;rounded=0;movable=0;resizable=0;rotatable=0;deletable=0;editable=0;locked=1;connectable=0;" parent="ZzXIpPAD5MCdEfTn8lEt-22" vertex="1">
          <mxGeometry width="54.782608695652186" height="29.34782608695652" as="geometry" />
        </mxCell>
        <mxCell id="ZzXIpPAD5MCdEfTn8lEt-15" value="REL" style="text;html=1;strokeColor=none;fillColor=none;align=center;verticalAlign=middle;whiteSpace=wrap;rounded=0;movable=0;resizable=0;rotatable=0;deletable=0;editable=0;locked=1;connectable=0;" parent="ZzXIpPAD5MCdEfTn8lEt-22" vertex="1">
          <mxGeometry x="30" y="30" width="54.79" height="33.26" as="geometry" />
        </mxCell>
        <mxCell id="ZzXIpPAD5MCdEfTn8lEt-12" value="VSYNC" style="text;html=1;strokeColor=none;fillColor=none;align=center;verticalAlign=middle;whiteSpace=wrap;rounded=0;movable=0;resizable=0;rotatable=0;deletable=0;editable=0;locked=1;connectable=0;" parent="ZzXIpPAD5MCdEfTn8lEt-22" vertex="1">
          <mxGeometry x="63.9130434782609" y="68.47826086956522" width="54.782608695652186" height="29.34782608695652" as="geometry" />
        </mxCell>
        <mxCell id="Ba6T_ooh9Mtlx2RINqY4-15" value="" style="group" parent="1" vertex="1" connectable="0">
          <mxGeometry x="75" y="470" width="1020" height="341" as="geometry" />
        </mxCell>
        <mxCell id="Ba6T_ooh9Mtlx2RINqY4-1" value="Communication layer" style="shape=folder;fontStyle=1;spacingTop=10;tabWidth=40;tabHeight=14;tabPosition=left;html=1;whiteSpace=wrap;align=left;verticalAlign=top;labelBackgroundColor=none;fillColor=#e1d5e7;strokeColor=#9673a6;" parent="Ba6T_ooh9Mtlx2RINqY4-15" vertex="1">
          <mxGeometry width="1020" height="341" as="geometry" />
        </mxCell>
        <mxCell id="1DaD0b_Yj19bJ4eFErKd-1" value="CommunicationLayer" style="swimlane;fontStyle=1;align=center;verticalAlign=top;childLayout=stackLayout;horizontal=1;startSize=26;horizontalStack=0;resizeParent=1;resizeParentMax=0;resizeLast=0;collapsible=1;marginBottom=0;" parent="Ba6T_ooh9Mtlx2RINqY4-15" vertex="1">
          <mxGeometry x="280" y="51" width="370" height="250" as="geometry" />
        </mxCell>
        <mxCell id="1DaD0b_Yj19bJ4eFErKd-2" value="- connectedClients: Map&lt;UUID, ClientHandler&gt;&#xa;- upBuffer: BlockingQueue&lt;BasicMessage&gt;&#xa;- viewManager: ViewManager&#xa;- isConnected: boolean" style="text;strokeColor=none;fillColor=default;align=left;verticalAlign=top;spacingLeft=4;spacingRight=4;overflow=hidden;rotatable=0;points=[[0,0.5],[1,0.5]];portConstraint=eastwest;" parent="1DaD0b_Yj19bJ4eFErKd-1" vertex="1">
          <mxGeometry y="26" width="370" height="64" as="geometry" />
        </mxCell>
        <mxCell id="1DaD0b_Yj19bJ4eFErKd-3" value="" style="line;strokeWidth=1;fillColor=default;align=left;verticalAlign=middle;spacingTop=-1;spacingLeft=3;spacingRight=3;rotatable=0;labelPosition=right;points=[];portConstraint=eastwest;strokeColor=default;" parent="1DaD0b_Yj19bJ4eFErKd-1" vertex="1">
          <mxGeometry y="90" width="370" height="8" as="geometry" />
        </mxCell>
        <mxCell id="1DaD0b_Yj19bJ4eFErKd-4" value="+ startDiscoverySender(id: UUID, random: int)&#xa;- encodeMessage(message: BasicMessage): byte[]&#xa;- decodeMessage(message: BasicMessage): BasicMessage&#xa;+ sendMessageBroadcast(message: ReliabilityMessage)&#xa;+ sendMessage(senderUUID: UUID, message: ReliabilityMessage)&#xa;+ initConnection(address: InitAddress, newUUID: UUID)&#xa;+ addClient(senderUID: UUID, socket: Socket)&#xa;- startDiscoveryListener()&#xa;- startServerListener()&#xa;-init()" style="text;strokeColor=none;fillColor=default;align=left;verticalAlign=top;spacingLeft=4;spacingRight=4;overflow=hidden;rotatable=0;points=[[0,0.5],[1,0.5]];portConstraint=eastwest;" parent="1DaD0b_Yj19bJ4eFErKd-1" vertex="1">
          <mxGeometry y="98" width="370" height="152" as="geometry" />
        </mxCell>
        <mxCell id="ZzXIpPAD5MCdEfTn8lEt-1" value="ClientHandler" style="swimlane;fontStyle=1;align=center;verticalAlign=top;childLayout=stackLayout;horizontal=1;startSize=26;horizontalStack=0;resizeParent=1;resizeParentMax=0;resizeLast=0;collapsible=1;marginBottom=0;fillColor=default;labelBackgroundColor=none;gradientColor=none;" parent="Ba6T_ooh9Mtlx2RINqY4-15" vertex="1">
          <mxGeometry x="10" y="51" width="230" height="170" as="geometry" />
        </mxCell>
        <mxCell id="ZzXIpPAD5MCdEfTn8lEt-2" value="- clientUID: UUID&#xa;- inputStream: DataInputStream&#xa;- outputStream: DataOutputStream&#xa;- messageHandler: CommunicationLayer" style="text;strokeColor=none;fillColor=default;align=left;verticalAlign=top;spacingLeft=4;spacingRight=4;overflow=hidden;rotatable=0;points=[[0,0.5],[1,0.5]];portConstraint=eastwest;" parent="ZzXIpPAD5MCdEfTn8lEt-1" vertex="1">
          <mxGeometry y="26" width="230" height="64" as="geometry" />
        </mxCell>
        <mxCell id="ZzXIpPAD5MCdEfTn8lEt-3" value="" style="line;strokeWidth=1;fillColor=default;align=left;verticalAlign=middle;spacingTop=-1;spacingLeft=3;spacingRight=3;rotatable=0;labelPosition=right;points=[];portConstraint=eastwest;strokeColor=default;" parent="ZzXIpPAD5MCdEfTn8lEt-1" vertex="1">
          <mxGeometry y="90" width="230" height="8" as="geometry" />
        </mxCell>
        <mxCell id="ZzXIpPAD5MCdEfTn8lEt-4" value="+ run()&#xa;+ sendMessage(payload: Byte[])&#xa;- receiveMessage()&#xa;+ getClientUID(): UUID" style="text;strokeColor=none;fillColor=default;align=left;verticalAlign=top;spacingLeft=4;spacingRight=4;overflow=hidden;rotatable=0;points=[[0,0.5],[1,0.5]];portConstraint=eastwest;" parent="ZzXIpPAD5MCdEfTn8lEt-1" vertex="1">
          <mxGeometry y="98" width="230" height="72" as="geometry" />
        </mxCell>
        <mxCell id="Ba6T_ooh9Mtlx2RINqY4-14" value="" style="group" parent="Ba6T_ooh9Mtlx2RINqY4-15" vertex="1" connectable="0">
          <mxGeometry x="660" y="21" width="350" height="280" as="geometry" />
        </mxCell>
        <mxCell id="Ba6T_ooh9Mtlx2RINqY4-6" value="Message" style="shape=folder;fontStyle=1;spacingTop=10;tabWidth=40;tabHeight=14;tabPosition=left;html=1;whiteSpace=wrap;align=left;verticalAlign=top;fillColor=#fff2cc;strokeColor=#d6b656;" parent="Ba6T_ooh9Mtlx2RINqY4-14" vertex="1">
          <mxGeometry width="350" height="280" as="geometry" />
        </mxCell>
        <mxCell id="1DaD0b_Yj19bJ4eFErKd-9" value="AckMessage" style="swimlane;fontStyle=1;align=center;verticalAlign=top;childLayout=stackLayout;horizontal=1;startSize=26;horizontalStack=0;resizeParent=1;resizeParentMax=0;resizeLast=0;collapsible=1;marginBottom=0;" parent="Ba6T_ooh9Mtlx2RINqY4-14" vertex="1">
          <mxGeometry x="10" y="142" width="150" height="50" as="geometry" />
        </mxCell>
        <mxCell id="1DaD0b_Yj19bJ4eFErKd-10" value="- referenceNumber: UUID" style="text;strokeColor=none;fillColor=default;align=left;verticalAlign=top;spacingLeft=4;spacingRight=4;overflow=hidden;rotatable=0;points=[[0,0.5],[1,0.5]];portConstraint=eastwest;" parent="1DaD0b_Yj19bJ4eFErKd-9" vertex="1">
          <mxGeometry y="26" width="150" height="24" as="geometry" />
        </mxCell>
        <mxCell id="1DaD0b_Yj19bJ4eFErKd-29" value="DiscoveryMessage" style="swimlane;fontStyle=1;align=center;verticalAlign=top;childLayout=stackLayout;horizontal=1;startSize=26;horizontalStack=0;resizeParent=1;resizeParentMax=0;resizeLast=0;collapsible=1;marginBottom=0;" parent="Ba6T_ooh9Mtlx2RINqY4-14" vertex="1">
          <mxGeometry x="115" y="210" width="120" height="50" as="geometry" />
        </mxCell>
        <mxCell id="1DaD0b_Yj19bJ4eFErKd-30" value="- random: int" style="text;strokeColor=none;fillColor=default;align=left;verticalAlign=top;spacingLeft=4;spacingRight=4;overflow=hidden;rotatable=0;points=[[0,0.5],[1,0.5]];portConstraint=eastwest;" parent="1DaD0b_Yj19bJ4eFErKd-29" vertex="1">
          <mxGeometry y="26" width="120" height="24" as="geometry" />
        </mxCell>
        <mxCell id="1DaD0b_Yj19bJ4eFErKd-38" value="&lt;b&gt;BasicMessage&lt;/b&gt;&lt;br&gt;{abstract}" style="swimlane;fontStyle=0;align=center;verticalAlign=top;childLayout=stackLayout;horizontal=1;startSize=40;horizontalStack=0;resizeParent=1;resizeParentMax=0;resizeLast=0;collapsible=0;marginBottom=0;html=1;" parent="Ba6T_ooh9Mtlx2RINqY4-14" vertex="1">
          <mxGeometry x="101" y="30" width="148" height="90" as="geometry" />
        </mxCell>
        <mxCell id="1DaD0b_Yj19bJ4eFErKd-40" value="- timestamp : DateTime&lt;br&gt;- senderUID: UUID&lt;br&gt;- type : Enum" style="text;html=1;strokeColor=none;fillColor=default;align=left;verticalAlign=middle;spacingLeft=4;spacingRight=4;overflow=hidden;rotatable=0;points=[[0,0.5],[1,0.5]];portConstraint=eastwest;" parent="1DaD0b_Yj19bJ4eFErKd-38" vertex="1">
          <mxGeometry y="40" width="148" height="50" as="geometry" />
        </mxCell>
        <mxCell id="Ba6T_ooh9Mtlx2RINqY4-9" value="DataMessage" style="swimlane;fontStyle=1;align=center;verticalAlign=top;childLayout=stackLayout;horizontal=1;startSize=26;horizontalStack=0;resizeParent=1;resizeParentMax=0;resizeLast=0;collapsible=1;marginBottom=0;" parent="Ba6T_ooh9Mtlx2RINqY4-14" vertex="1">
          <mxGeometry x="170" y="142" width="170" height="50" as="geometry" />
        </mxCell>
        <mxCell id="Ba6T_ooh9Mtlx2RINqY4-10" value="- payload: ReliabilityMessage" style="text;strokeColor=none;fillColor=default;align=left;verticalAlign=top;spacingLeft=4;spacingRight=4;overflow=hidden;rotatable=0;points=[[0,0.5],[1,0.5]];portConstraint=eastwest;" parent="Ba6T_ooh9Mtlx2RINqY4-9" vertex="1">
          <mxGeometry y="26" width="170" height="24" as="geometry" />
        </mxCell>
        <mxCell id="Ba6T_ooh9Mtlx2RINqY4-5" value="" style="endArrow=block;startArrow=block;endFill=1;startFill=1;html=1;rounded=0;entryX=0.004;entryY=0.932;entryDx=0;entryDy=0;entryPerimeter=0;" parent="Ba6T_ooh9Mtlx2RINqY4-15" source="ZzXIpPAD5MCdEfTn8lEt-1" target="1DaD0b_Yj19bJ4eFErKd-2" edge="1">
          <mxGeometry width="160" relative="1" as="geometry">
            <mxPoint x="-610" y="820" as="sourcePoint" />
            <mxPoint x="-760" y="705" as="targetPoint" />
          </mxGeometry>
        </mxCell>
        <mxCell id="AYSSWB5bRMuOiGuen173-1" value="FaultRecovery" style="swimlane;fontStyle=1;align=center;verticalAlign=top;childLayout=stackLayout;horizontal=1;startSize=26;horizontalStack=0;resizeParent=1;resizeParentMax=0;resizeLast=0;collapsible=1;marginBottom=0;whiteSpace=wrap;html=1;" parent="1" vertex="1">
          <mxGeometry x="780" y="50" width="340" height="190" as="geometry" />
        </mxCell>
        <mxCell id="K63n-2hImcbEGLhtLo0a-7" value="- vSyncLayer: VSynchLayer&lt;br&gt;- log: List&amp;lt;Byte[]&amp;gt;&lt;br&gt;- checkpoints: List&amp;lt;Checkpoint&amp;gt;&lt;br&gt;- gson: Gson&lt;br&gt;- checkpointCounter: int" style="text;strokeColor=none;fillColor=none;align=left;verticalAlign=top;spacingLeft=4;spacingRight=4;overflow=hidden;rotatable=0;points=[[0,0.5],[1,0.5]];portConstraint=eastwest;whiteSpace=wrap;html=1;" parent="AYSSWB5bRMuOiGuen173-1" vertex="1">
          <mxGeometry y="26" width="340" height="74" as="geometry" />
        </mxCell>
        <mxCell id="AYSSWB5bRMuOiGuen173-3" value="" style="line;strokeWidth=1;fillColor=none;align=left;verticalAlign=middle;spacingTop=-1;spacingLeft=3;spacingRight=3;rotatable=0;labelPosition=right;points=[];portConstraint=eastwest;strokeColor=inherit;" parent="AYSSWB5bRMuOiGuen173-1" vertex="1">
          <mxGeometry y="100" width="340" height="10" as="geometry" />
        </mxCell>
        <mxCell id="AYSSWB5bRMuOiGuen173-4" value="+ doCheckpoint()&lt;br&gt;+ recoverCheckpoint(checkpointID:int) : RecoveryPacket&lt;br&gt;+ logMessage(message: VsyncMessage)&lt;br&gt;+ initFaultRecovery(RecoveryPacket)" style="text;strokeColor=none;fillColor=none;align=left;verticalAlign=top;spacingLeft=4;spacingRight=4;overflow=hidden;rotatable=0;points=[[0,0.5],[1,0.5]];portConstraint=eastwest;whiteSpace=wrap;html=1;" parent="AYSSWB5bRMuOiGuen173-1" vertex="1">
          <mxGeometry y="110" width="340" height="80" as="geometry" />
        </mxCell>
        <mxCell id="AYSSWB5bRMuOiGuen173-6" style="edgeStyle=orthogonalEdgeStyle;rounded=0;orthogonalLoop=1;jettySize=auto;html=1;exitX=1;exitY=0.5;exitDx=0;exitDy=0;" parent="1" target="AYSSWB5bRMuOiGuen173-1" edge="1">
          <mxGeometry relative="1" as="geometry">
            <mxPoint x="656" y="216.83" as="sourcePoint" />
            <mxPoint x="802.4360000000001" y="189.99800000000002" as="targetPoint" />
            <Array as="points">
              <mxPoint x="740" y="217" />
              <mxPoint x="740" y="79" />
            </Array>
          </mxGeometry>
        </mxCell>
        <mxCell id="K63n-2hImcbEGLhtLo0a-1" value="get message logga il &lt;br&gt;messaggio in &lt;br&gt;arrivo dal upBuffer" style="text;html=1;align=center;verticalAlign=middle;resizable=0;points=[];autosize=1;strokeColor=none;fillColor=none;" parent="1" vertex="1">
          <mxGeometry x="650" y="210" width="130" height="60" as="geometry" />
        </mxCell>
        <mxCell id="K63n-2hImcbEGLhtLo0a-3" style="edgeStyle=orthogonalEdgeStyle;rounded=0;orthogonalLoop=1;jettySize=auto;html=1;" parent="1" source="1DaD0b_Yj19bJ4eFErKd-16" target="AYSSWB5bRMuOiGuen173-1" edge="1">
          <mxGeometry relative="1" as="geometry">
            <Array as="points">
              <mxPoint x="1080" y="419" />
              <mxPoint x="1080" y="90" />
            </Array>
          </mxGeometry>
        </mxCell>
        <mxCell id="K63n-2hImcbEGLhtLo0a-4" value="checkDelivery logga il messaggio che deve inviare, quando il messaggio è stabile" style="edgeLabel;html=1;align=center;verticalAlign=middle;resizable=0;points=[];" parent="K63n-2hImcbEGLhtLo0a-3" vertex="1" connectable="0">
          <mxGeometry x="-0.5493" y="-2" relative="1" as="geometry">
            <mxPoint x="76" y="8" as="offset" />
          </mxGeometry>
        </mxCell>
        <mxCell id="K63n-2hImcbEGLhtLo0a-9" value="View Manager" style="swimlane;fontStyle=1;align=center;verticalAlign=top;childLayout=stackLayout;horizontal=1;startSize=26;horizontalStack=0;resizeParent=1;resizeParentMax=0;resizeLast=0;collapsible=1;marginBottom=0;whiteSpace=wrap;html=1;" parent="1" vertex="1">
          <mxGeometry x="780" y="270" width="260" height="86" as="geometry" />
        </mxCell>
        <mxCell id="K63n-2hImcbEGLhtLo0a-10" value="- faultRecv: FaultRecovery" style="text;strokeColor=none;fillColor=none;align=left;verticalAlign=top;spacingLeft=4;spacingRight=4;overflow=hidden;rotatable=0;points=[[0,0.5],[1,0.5]];portConstraint=eastwest;whiteSpace=wrap;html=1;" parent="K63n-2hImcbEGLhtLo0a-9" vertex="1">
          <mxGeometry y="26" width="260" height="26" as="geometry" />
        </mxCell>
        <mxCell id="K63n-2hImcbEGLhtLo0a-11" value="" style="line;strokeWidth=1;fillColor=none;align=left;verticalAlign=middle;spacingTop=-1;spacingLeft=3;spacingRight=3;rotatable=0;labelPosition=right;points=[];portConstraint=eastwest;strokeColor=inherit;" parent="K63n-2hImcbEGLhtLo0a-9" vertex="1">
          <mxGeometry y="52" width="260" height="8" as="geometry" />
        </mxCell>
        <mxCell id="K63n-2hImcbEGLhtLo0a-12" value="- handleCheckpoint()" style="text;strokeColor=none;fillColor=none;align=left;verticalAlign=top;spacingLeft=4;spacingRight=4;overflow=hidden;rotatable=0;points=[[0,0.5],[1,0.5]];portConstraint=eastwest;whiteSpace=wrap;html=1;" parent="K63n-2hImcbEGLhtLo0a-9" vertex="1">
          <mxGeometry y="60" width="260" height="26" as="geometry" />
        </mxCell>
        <mxCell id="K63n-2hImcbEGLhtLo0a-14" value="RecoveryPacket" style="swimlane;fontStyle=1;align=center;verticalAlign=top;childLayout=stackLayout;horizontal=1;startSize=26;horizontalStack=0;resizeParent=1;resizeParentMax=0;resizeLast=0;collapsible=1;marginBottom=0;whiteSpace=wrap;html=1;" parent="1" vertex="1">
          <mxGeometry x="1150" y="50" width="190" height="68" as="geometry" />
        </mxCell>
        <mxCell id="K63n-2hImcbEGLhtLo0a-15" value="- checkpoints: List&amp;lt;Checkpoint&amp;gt;&lt;br&gt;- log: List&amp;lt;VsyncMessage&amp;gt;" style="text;strokeColor=none;fillColor=none;align=left;verticalAlign=top;spacingLeft=4;spacingRight=4;overflow=hidden;rotatable=0;points=[[0,0.5],[1,0.5]];portConstraint=eastwest;whiteSpace=wrap;html=1;" parent="K63n-2hImcbEGLhtLo0a-14" vertex="1">
          <mxGeometry y="26" width="190" height="34" as="geometry" />
        </mxCell>
        <mxCell id="K63n-2hImcbEGLhtLo0a-16" value="" style="line;strokeWidth=1;fillColor=none;align=left;verticalAlign=middle;spacingTop=-1;spacingLeft=3;spacingRight=3;rotatable=0;labelPosition=right;points=[];portConstraint=eastwest;strokeColor=inherit;" parent="K63n-2hImcbEGLhtLo0a-14" vertex="1">
          <mxGeometry y="60" width="190" height="8" as="geometry" />
        </mxCell>
        <mxCell id="K63n-2hImcbEGLhtLo0a-18" value="Checkpoint" style="swimlane;fontStyle=1;align=center;verticalAlign=top;childLayout=stackLayout;horizontal=1;startSize=26;horizontalStack=0;resizeParent=1;resizeParentMax=0;resizeLast=0;collapsible=1;marginBottom=0;whiteSpace=wrap;html=1;" parent="1" vertex="1">
          <mxGeometry x="1150" y="150" width="180" height="78" as="geometry" />
        </mxCell>
        <mxCell id="K63n-2hImcbEGLhtLo0a-19" value="- checkpointID: int&lt;br&gt;- savedMessages: List &amp;lt;Byte[]&amp;gt;" style="text;strokeColor=none;fillColor=none;align=left;verticalAlign=top;spacingLeft=4;spacingRight=4;overflow=hidden;rotatable=0;points=[[0,0.5],[1,0.5]];portConstraint=eastwest;whiteSpace=wrap;html=1;" parent="K63n-2hImcbEGLhtLo0a-18" vertex="1">
          <mxGeometry y="26" width="180" height="44" as="geometry" />
        </mxCell>
        <mxCell id="K63n-2hImcbEGLhtLo0a-20" value="" style="line;strokeWidth=1;fillColor=none;align=left;verticalAlign=middle;spacingTop=-1;spacingLeft=3;spacingRight=3;rotatable=0;labelPosition=right;points=[];portConstraint=eastwest;strokeColor=inherit;" parent="K63n-2hImcbEGLhtLo0a-18" vertex="1">
          <mxGeometry y="70" width="180" height="8" as="geometry" />
        </mxCell>
        <mxCell id="K63n-2hImcbEGLhtLo0a-22" value="ViewManager quando arriva un messaggio RECOVER, stoppa l&#39;invio di messaggi e attende la stabilizzazione della view&lt;br&gt;e poi procede a chiamare la recoverCheckpoint (id checkpoint in RECOVER) che legge la lista di checkpoints e il log, crea il RecoveryPacket e invia il pacchetto tramite messaggio RecoveryPacketMessage (Type: RECOVERY_PACKET) contenente sia il checkpoint che il log.&lt;br&gt;&lt;br&gt;Quando un messaggio è pronto per essere rimosso dalla ackMap chiamo logMessage che aggiunge il messaggio alla lista dopo averlo serializzato e controlla che non sia stato superato il treshold, se si allora chiama handleCheckpoint()" style="text;html=1;strokeColor=none;fillColor=none;align=center;verticalAlign=middle;whiteSpace=wrap;rounded=0;" parent="1" vertex="1">
          <mxGeometry x="1110" y="271" width="360" height="146" as="geometry" />
        </mxCell>
      </root>
    </mxGraphModel>
  </diagram>
  <diagram id="d3YnmPJicnSrvJ-u_3Hq" name="NewHostProtocol">
    <mxGraphModel dx="2046" dy="486" grid="1" gridSize="10" guides="1" tooltips="1" connect="1" arrows="1" fold="1" page="1" pageScale="1" pageWidth="850" pageHeight="1100" math="0" shadow="0">
      <root>
        <mxCell id="0" />
        <mxCell id="1" parent="0" />
        <mxCell id="uTx8Rj_7TUOLLO0W6Pyp-1" value="Host A" style="shape=umlLifeline;perimeter=lifelinePerimeter;whiteSpace=wrap;html=1;container=1;collapsible=0;recursiveResize=0;outlineConnect=0;" parent="1" vertex="1">
          <mxGeometry x="80" y="40" width="100" height="470" as="geometry" />
        </mxCell>
        <mxCell id="uTx8Rj_7TUOLLO0W6Pyp-6" value="" style="html=1;points=[];perimeter=orthogonalPerimeter;" parent="uTx8Rj_7TUOLLO0W6Pyp-1" vertex="1">
          <mxGeometry x="45" y="100" width="10" height="80" as="geometry" />
        </mxCell>
        <mxCell id="uTx8Rj_7TUOLLO0W6Pyp-19" value="" style="html=1;points=[];perimeter=orthogonalPerimeter;" parent="uTx8Rj_7TUOLLO0W6Pyp-1" vertex="1">
          <mxGeometry x="45" y="300" width="10" height="80" as="geometry" />
        </mxCell>
        <mxCell id="uTx8Rj_7TUOLLO0W6Pyp-2" value="Host B" style="shape=umlLifeline;perimeter=lifelinePerimeter;whiteSpace=wrap;html=1;container=1;collapsible=0;recursiveResize=0;outlineConnect=0;" parent="1" vertex="1">
          <mxGeometry x="375" y="40" width="100" height="470" as="geometry" />
        </mxCell>
        <mxCell id="uTx8Rj_7TUOLLO0W6Pyp-10" value="" style="html=1;points=[];perimeter=orthogonalPerimeter;" parent="uTx8Rj_7TUOLLO0W6Pyp-2" vertex="1">
          <mxGeometry x="45" y="180" width="10" height="80" as="geometry" />
        </mxCell>
        <mxCell id="uTx8Rj_7TUOLLO0W6Pyp-3" value="Host C" style="shape=umlLifeline;perimeter=lifelinePerimeter;whiteSpace=wrap;html=1;container=1;collapsible=0;recursiveResize=0;outlineConnect=0;" parent="1" vertex="1">
          <mxGeometry x="660" y="247" width="100" height="263" as="geometry" />
        </mxCell>
        <mxCell id="uTx8Rj_7TUOLLO0W6Pyp-4" value="DISCOVERY" style="html=1;verticalAlign=bottom;startArrow=oval;startFill=1;endArrow=block;startSize=8;rounded=0;" parent="1" source="uTx8Rj_7TUOLLO0W6Pyp-1" target="uTx8Rj_7TUOLLO0W6Pyp-2" edge="1">
          <mxGeometry width="60" relative="1" as="geometry">
            <mxPoint x="390" y="220" as="sourcePoint" />
            <mxPoint x="430" y="220" as="targetPoint" />
            <Array as="points">
              <mxPoint x="200" y="110" />
            </Array>
          </mxGeometry>
        </mxCell>
        <mxCell id="uTx8Rj_7TUOLLO0W6Pyp-5" value="DISCOVERY" style="html=1;verticalAlign=bottom;startArrow=oval;startFill=1;endArrow=block;startSize=8;rounded=0;" parent="1" source="uTx8Rj_7TUOLLO0W6Pyp-2" target="uTx8Rj_7TUOLLO0W6Pyp-1" edge="1">
          <mxGeometry width="60" relative="1" as="geometry">
            <mxPoint x="139.5" y="120" as="sourcePoint" />
            <mxPoint x="434.5" y="120" as="targetPoint" />
            <Array as="points">
              <mxPoint x="210" y="140" />
            </Array>
          </mxGeometry>
        </mxCell>
        <mxCell id="uTx8Rj_7TUOLLO0W6Pyp-7" value="&lt;div style=&quot;text-align: center;&quot;&gt;&lt;span style=&quot;background-color: initial;&quot;&gt;BECAME VIEW MANAGER&lt;/span&gt;&lt;/div&gt;" style="text;html=1;strokeColor=none;fillColor=none;align=left;verticalAlign=middle;whiteSpace=wrap;rounded=0;" parent="1" vertex="1">
          <mxGeometry x="-30" y="140" width="130" height="30" as="geometry" />
        </mxCell>
        <mxCell id="uTx8Rj_7TUOLLO0W6Pyp-9" value="DISCOVERY" style="html=1;verticalAlign=bottom;startArrow=oval;startFill=1;endArrow=block;startSize=8;rounded=0;" parent="1" source="uTx8Rj_7TUOLLO0W6Pyp-3" target="uTx8Rj_7TUOLLO0W6Pyp-1" edge="1">
          <mxGeometry width="60" relative="1" as="geometry">
            <mxPoint x="380" y="340" as="sourcePoint" />
            <mxPoint x="440" y="340" as="targetPoint" />
            <Array as="points">
              <mxPoint x="420" y="340" />
            </Array>
          </mxGeometry>
        </mxCell>
        <mxCell id="uTx8Rj_7TUOLLO0W6Pyp-11" value="INITIAL TOPOLOGY" style="html=1;verticalAlign=bottom;endArrow=block;entryX=0;entryY=0;rounded=0;" parent="1" source="uTx8Rj_7TUOLLO0W6Pyp-1" target="uTx8Rj_7TUOLLO0W6Pyp-10" edge="1">
          <mxGeometry relative="1" as="geometry">
            <mxPoint x="350" y="200" as="sourcePoint" />
          </mxGeometry>
        </mxCell>
        <mxCell id="uTx8Rj_7TUOLLO0W6Pyp-12" value="CONFIRM" style="html=1;verticalAlign=bottom;endArrow=open;dashed=1;endSize=8;exitX=0;exitY=0.95;rounded=0;" parent="1" source="uTx8Rj_7TUOLLO0W6Pyp-10" target="uTx8Rj_7TUOLLO0W6Pyp-1" edge="1">
          <mxGeometry relative="1" as="geometry">
            <mxPoint x="350" y="276" as="targetPoint" />
          </mxGeometry>
        </mxCell>
        <mxCell id="uTx8Rj_7TUOLLO0W6Pyp-13" value="CONNECT &amp;&#xa;ESTABLISH VIEW MANAGER" style="text;align=center;fontStyle=0;verticalAlign=middle;spacingLeft=3;spacingRight=3;strokeColor=none;rotatable=0;points=[[0,0.5],[1,0.5]];portConstraint=eastwest;" parent="1" vertex="1">
          <mxGeometry x="480" y="221" width="80" height="26" as="geometry" />
        </mxCell>
        <mxCell id="uTx8Rj_7TUOLLO0W6Pyp-17" value="DISCOVERY" style="html=1;verticalAlign=bottom;startArrow=oval;startFill=1;endArrow=block;startSize=8;rounded=0;" parent="1" source="uTx8Rj_7TUOLLO0W6Pyp-3" target="uTx8Rj_7TUOLLO0W6Pyp-2" edge="1">
          <mxGeometry width="60" relative="1" as="geometry">
            <mxPoint x="719.5" y="350" as="sourcePoint" />
            <mxPoint x="139.73076923076928" y="350" as="targetPoint" />
            <Array as="points">
              <mxPoint x="570" y="370" />
            </Array>
          </mxGeometry>
        </mxCell>
        <mxCell id="uTx8Rj_7TUOLLO0W6Pyp-18" value="ADVERTIZE" style="html=1;verticalAlign=bottom;startArrow=oval;startFill=1;endArrow=block;startSize=8;rounded=0;" parent="1" source="uTx8Rj_7TUOLLO0W6Pyp-2" target="uTx8Rj_7TUOLLO0W6Pyp-1" edge="1">
          <mxGeometry width="60" relative="1" as="geometry">
            <mxPoint x="390" y="360" as="sourcePoint" />
            <mxPoint x="220" y="450" as="targetPoint" />
            <Array as="points">
              <mxPoint x="290" y="370" />
              <mxPoint x="170" y="340" />
            </Array>
          </mxGeometry>
        </mxCell>
        <mxCell id="uTx8Rj_7TUOLLO0W6Pyp-20" value="START A VIEW CHANGE" style="text;html=1;strokeColor=none;fillColor=none;align=center;verticalAlign=middle;whiteSpace=wrap;rounded=0;" parent="1" vertex="1">
          <mxGeometry x="40" y="350" width="60" height="30" as="geometry" />
        </mxCell>
      </root>
    </mxGraphModel>
  </diagram>
</mxfile>
